<?xml version="1.0" standalone="no"?>
<!DOCTYPE svg PUBLIC "-//W3C//DTD SVG 20010904//EN"
 "http://www.w3.org/TR/2001/REC-SVG-20010904/DTD/svg10.dtd">
<svg version="1.0" xmlns="http://www.w3.org/2000/svg"
 width="100.000000pt" height="100.000000pt" viewBox="0 0 100.000000 100.000000"
 preserveAspectRatio="xMidYMid meet">
<metadata>
Created by potrace 1.11, written by Peter Selinger 2001-2013
</metadata>
<g transform="translate(0.000000,100.000000) scale(0.100000,-0.100000)"
fill="#000000" stroke="none">
<path d="M305 955 c-17 -13 -41 -24 -54 -25 -13 0 -32 -11 -43 -25 -11 -14
-29 -25 -41 -25 -18 0 -19 -2 -7 -10 20 -13 43 -13 35 0 -3 6 -2 10 4 10 15 0
23 -18 10 -22 -8 -3 -6 -13 6 -31 12 -18 21 -61 27 -125 11 -118 37 -171 98
-198 l39 -17 -31 -36 c-41 -47 -80 -55 -138 -29 -57 26 -124 26 -159 0 -41
-30 -39 -57 8 -86 51 -33 56 -32 111 4 l45 30 278 0 c275 0 277 0 277 21 0 20
-4 21 -87 18 -49 -2 -120 -2 -160 -1 l-71 2 19 53 c11 28 21 57 23 63 5 14
153 -11 175 -29 17 -15 52 -31 63 -29 3 1 32 -25 64 -58 43 -45 63 -59 78 -55
12 3 15 2 8 -1 -10 -5 -8 -10 7 -20 14 -10 26 -12 46 -4 32 12 25 27 -25 49
-65 29 -280 191 -280 211 0 6 -10 10 -22 10 -18 0 -20 2 -8 9 8 6 18 7 22 5 4
-3 8 -2 8 3 0 9 -62 53 -74 53 -5 0 -55 35 -113 78 -79 58 -106 84 -110 105
-3 16 -14 34 -24 40 -16 10 -16 13 8 44 32 42 26 50 -12 18z m-65 -60 c0 -8
-4 -15 -10 -15 -5 0 -7 7 -4 15 4 8 8 15 10 15 2 0 4 -7 4 -15z m80 -41 c0 -8
-19 -13 -24 -6 -3 5 1 9 9 9 8 0 15 -2 15 -3z m-60 -39 c7 -13 17 -22 21 -19
5 3 6 -2 3 -9 -10 -26 -38 -12 -45 21 -8 38 3 42 21 7z m111 -32 c13 -16 12
-17 -3 -4 -10 7 -18 15 -18 17 0 8 8 3 21 -13z m34 -33 c3 -5 1 -10 -4 -10 -6
0 -11 5 -11 10 0 6 2 10 4 10 3 0 8 -4 11 -10z m-115 -32 c0 -6 -7 -5 -15 2
-8 7 -15 17 -15 22 0 6 7 5 15 -2 8 -7 15 -17 15 -22z m106 -10 l29 -33 -32
29 c-31 28 -38 36 -30 36 2 0 16 -15 33 -32z m49 22 c3 -5 1 -10 -4 -10 -6 0
-11 5 -11 10 0 6 2 10 4 10 3 0 8 -4 11 -10z m-59 -47 c-7 -7 -26 7 -26 19 0
6 6 6 15 -2 9 -7 13 -15 11 -17z m-61 7 c3 -6 -1 -7 -9 -4 -18 7 -21 14 -7 14
6 0 13 -4 16 -10z m180 -72 c14 -6 25 -17 25 -24 0 -20 -32 -26 -49 -8 -15 15
-14 15 7 5 12 -7 22 -8 22 -3 0 5 -10 17 -22 25 -27 19 -19 22 17 5z m-175
-22 c0 -2 -6 -9 -13 -15 -10 -8 -14 -7 -14 4 0 8 6 15 14 15 7 0 13 -2 13 -4z
m10 -26 c0 -5 -5 -10 -11 -10 -5 0 -7 5 -4 10 3 6 8 10 11 10 2 0 4 -4 4 -10z
m113 -117 c-15 -31 -24 -39 -51 -41 -63 -6 -46 59 19 73 16 4 32 12 36 18 16
26 13 -13 -4 -50z"/>
<path d="M213 338 c-16 -20 -16 -118 0 -123 7 -3 35 -6 62 -8 50 -2 50 -2 53
31 3 27 0 32 -17 32 -12 0 -21 -7 -21 -15 0 -8 -8 -15 -18 -15 -15 0 -17 6
-14 35 4 32 6 34 33 28 24 -5 29 -2 29 14 0 16 -9 22 -37 27 -53 8 -59 8 -70
-6z"/>
<path d="M350 330 c-17 -32 -9 -114 12 -118 9 -2 19 5 23 17 9 29 25 26 25 -3
0 -19 4 -23 20 -19 23 6 24 11 9 86 -11 56 -13 57 -45 57 -23 0 -37 -6 -44
-20z m60 -46 c0 -8 -6 -14 -14 -14 -9 0 -12 7 -9 20 6 22 23 18 23 -6z"/>
<path d="M560 313 l-1 -38 -27 33 c-16 19 -36 32 -49 32 -19 0 -23 -5 -23 -32
0 -71 12 -108 32 -108 17 0 19 5 16 30 -6 38 2 38 24 0 12 -21 25 -30 43 -30
25 0 25 1 25 75 0 68 -2 75 -20 75 -16 0 -20 -7 -20 -37z"/>
<path d="M743 338 c-14 -18 -16 -105 -3 -128 12 -23 68 -28 88 -8 7 7 12 38
12 70 0 54 -2 59 -26 68 -34 13 -60 13 -71 -2z m59 -53 c-6 -47 -22 -55 -22
-11 0 19 6 37 13 39 6 3 12 6 12 6 1 1 -1 -15 -3 -34z"/>
<path d="M610 320 c0 -14 7 -20 21 -20 18 0 20 -5 18 -52 -3 -48 -1 -53 19
-56 20 -3 22 1 22 52 0 43 3 56 15 56 8 0 15 9 15 20 0 18 -7 20 -55 20 -48 0
-55 -2 -55 -20z"/>
<path d="M253 166 c4 -9 -4 -16 -23 -19 -25 -6 -27 -9 -21 -39 6 -31 10 -33
50 -36 l44 -3 -7 32 c-3 17 -6 42 -6 55 0 18 -6 24 -21 24 -14 0 -19 -5 -16
-14z m7 -57 c0 -11 -4 -17 -10 -14 -5 3 -10 13 -10 21 0 8 5 14 10 14 6 0 10
-9 10 -21z"/>
<path d="M442 168 c-21 -21 -14 -55 18 -78 38 -27 38 -38 -2 -42 -30 -3 -31
-4 -14 -21 23 -23 63 -22 76 2 17 33 11 55 -20 76 -34 23 -34 38 -1 43 12 2
20 9 18 15 -5 17 -60 20 -75 5z"/>
<path d="M554 155 c-21 -32 -15 -119 8 -123 9 -2 19 5 23 17 8 27 25 27 25 1
0 -13 7 -20 19 -20 29 0 31 9 17 75 -11 56 -14 60 -44 66 -28 6 -36 3 -48 -16z
m56 -45 c0 -11 -4 -20 -10 -20 -5 0 -10 9 -10 20 0 11 5 20 10 20 6 0 10 -9
10 -20z"/>
<path d="M677 163 c-4 -3 -7 -35 -7 -70 l0 -63 59 0 c38 0 61 4 64 13 4 10 6
9 6 0 1 -7 10 -13 21 -13 19 0 21 5 18 62 -2 50 -6 63 -20 66 -15 3 -18 -4
-18 -32 0 -32 -3 -36 -25 -36 -16 0 -25 -6 -25 -15 0 -8 -7 -15 -15 -15 -11 0
-15 11 -15 40 0 29 4 40 15 40 8 0 15 -4 15 -10 0 -5 9 -10 20 -10 15 0 20 7
20 25 0 24 -3 25 -53 25 -30 0 -57 -3 -60 -7z"/>
<path d="M317 154 c-12 -12 -8 -82 5 -86 21 -7 67 4 72 17 2 7 1 26 -3 42 -6
22 -14 29 -37 31 -16 2 -33 0 -37 -4z m43 -45 c0 -11 -4 -17 -10 -14 -5 3 -10
15 -10 26 0 11 5 17 10 14 6 -3 10 -15 10 -26z"/>
<path d="M210 35 c0 -13 16 -15 95 -14 74 1 95 4 95 15 0 11 -20 14 -95 14
-78 0 -95 -3 -95 -15z"/>
</g>
</svg>
